<svg width="80" height="80" viewBox="0 0 80 80" fill="none" xmlns="http://www.w3.org/2000/svg"><g id="空状态 Empty state/图表空状态/通用"><g id="Group 427318836"><path id="Rectangle 34624128" d="M9.75 14.037h60.5v33.88a3.63 3.63 0 0 1-3.63 3.63H13.38a3.63 3.63 0 0 1-3.63-3.63v-33.88z" fill="#E3E7F5"/><path id="Ellipse 375" d="M39.394 42.473c5.68 0 10.285-4.605 10.285-10.285H39.394V21.903c-5.68 0-10.285 4.604-10.285 10.285 0 5.68 4.605 10.285 10.285 10.285z" fill="#06F"/><path id="Ellipse 376" d="M41.21 20.692c5.347 0 9.68 4.334 9.68 9.68h-9.68v-9.68z" fill="#06F" fill-opacity=".5"/><rect id="Rectangle 34624129" x="7.33" y="8.593" width="65.34" height="3.63" rx="1.815" fill="#E3E7F5"/><path id="Rectangle 34624133" fill="#D3D8EA" d="M9.75 12.223H70.25V14.643H9.75z"/><rect id="Rectangle 34624130" x="19.43" y="63.648" width="41.14" height="7.26" rx="2.42" fill="#E3E7F5"/><path id="Rectangle 34624135" d="M19.43 68.487h41.14a2.42 2.42 0 0 1-2.42 2.42h-36.3a2.42 2.42 0 0 1-2.42-2.42z" fill="#D3D8EA"/><path id="Rectangle 34624131" fill="#E3E7F5" d="M36.975 51.548H43.025V63.648H36.975z"/><path id="Rectangle 34624134" fill="#D3D8EA" d="M36.975 51.548H43.025V53.968H36.975z"/></g></g></svg>