<svg width="80" height="80" viewBox="0 0 80 80" fill="none" xmlns="http://www.w3.org/2000/svg"><path d="M57 11H15a6 6 0 0 0-6 6v48a6 6 0 0 0 6 6h42a6 6 0 0 0 6-6V17a6 6 0 0 0-6-6z" fill="#E3E7F5"/><path stroke="#D3D8EA" stroke-width="3" d="M30 27.5 54 27.5"/><path d="m19.6 25 5.6 5.6M25.2 25l-5.6 5.6" stroke="#D3D8EA" stroke-width="3" stroke-linecap="square"/><path stroke="#D3D8EA" stroke-width="3" d="M18 40.5 38 40.5"/><path stroke="#D3D8EA" stroke-width="3" d="M18 53.5 32 53.5"/><path d="M22.5 8.5a2 2 0 0 1 2-2h23a2 2 0 0 1 2 2v5a2 2 0 0 1-2 2h-23a2 2 0 0 1-2-2v-5z" fill="#D3D8EA"/><circle cx="53" cy="51" r="13" stroke="#06F" stroke-width="3.5"/><path stroke="#06F" stroke-width="3" d="M63.061 60.439 64.758 62.136"/><path d="M64.505 64.844a2.052 2.052 0 0 1 2.89-2.89l5.541 4.628a2.7 2.7 0 1 1-3.803 3.803l-4.628-5.54z" fill="#06F" stroke="#06F"/><path fill-rule="evenodd" clip-rule="evenodd" d="m59.783 44.338-2.354 2.59-.698-.654a5.712 5.712 0 0 0-6.065-1.109l-1.106.455-1.57-3.139 1.343-.552a9.212 9.212 0 0 1 9.792 1.792l.658.617z" fill="#06F"/></svg>