<svg width="80" height="80" viewBox="0 0 80 80" fill="none" xmlns="http://www.w3.org/2000/svg"><path fill-rule="evenodd" clip-rule="evenodd" d="M14 11h48a8 8 0 0 1 8 8v5.6H6V19a8 8 0 0 1 8-8zM6 27v34a8 8 0 0 0 8 8h48a8 8 0 0 0 8-8V27H6z" fill="#E3E7F5"/><path d="M14.8 19.998a1.8 1.8 0 1 0 0-3.6 1.8 1.8 0 0 0 0 3.6zM21.8 19.998a1.8 1.8 0 1 0 0-3.6 1.8 1.8 0 0 0 0 3.6zM28.8 19.998a1.8 1.8 0 1 0 0-3.6 1.8 1.8 0 0 0 0 3.6zM46 36H14a1 1 0 0 0-1 1v5a1 1 0 0 0 1 1h32a1 1 0 0 0 1-1v-5a1 1 0 0 0-1-1zM40 51H14a1 1 0 0 0-1 1v3a1 1 0 0 0 1 1h26a1 1 0 0 0 1-1v-3a1 1 0 0 0-1-1z" fill="#D3D8EA"/><path d="M59.8 50.602v6.845c0 .306.249.555.555.555h7.446" stroke="#06F" stroke-width="3" stroke-linejoin="round"/><path d="M51.065 42v7h7" stroke="#06F" stroke-width="3"/><path d="M48.498 56.496c0 7.18 5.82 13 13 13s13-5.82 13-13-5.82-13-13-13c-3.492 0-6.862 1.514-9.198 3.754" stroke="#06F" stroke-width="3.5"/></svg>