<svg width="80" height="80" viewBox="0 0 80 80" fill="none" xmlns="http://www.w3.org/2000/svg"><path fill-rule="evenodd" clip-rule="evenodd" d="M15 63V38h48v25a8 8 0 0 1-8 8h-.8V51.8h-2.4V71H40.2V51.8h-2.4V71H26.2V51.8h-2.4V71H23a8 8 0 0 1-8-8z" fill="#E3E7F5"/><path d="M67 23H11a4 4 0 0 0-4 4v7a4 4 0 0 0 4 4h56a4 4 0 0 0 4-4v-7a4 4 0 0 0-4-4z" fill="#E3E7F5"/><path d="M32.5 11.5a6.5 6.5 0 1 1 13 0v10a6.5 6.5 0 1 1-13 0v-10z" fill="#E3E7F5"/><path d="M16.8 39.8h44.4" stroke="#D3D8EA" stroke-width="3.5" stroke-linecap="square"/><path d="M60 69c6.627 0 12-5.373 12-12s-5.373-12-12-12-12 5.373-12 12 5.373 12 12 12z" stroke="#06F" stroke-width="3.5"/><path d="m53.203 56.513 4.625 4.962 8.512-8.48" stroke="#06F" stroke-width="3"/></svg>