<svg width="80" height="80" viewBox="0 0 80 80" fill="none" xmlns="http://www.w3.org/2000/svg"><g id="空状态 Empty state/图表空状态/关系图"><g id="Group 427318934"><path id="Vector 7" d="M18.025 17.189s2.68 6.698 8.038 12.056c5.359 5.36 12.057 8.038 12.057 8.038" stroke="#C5CCDB" stroke-width="1.05" stroke-linecap="round" stroke-linejoin="round"/><path id="Vector 9" d="M24.287 64.112s6.3-2.542 11.55-10.168c5.25-7.626 8.4-13.982 8.4-13.982" stroke="#C5CCDB" stroke-width="1.05" stroke-linecap="round" stroke-linejoin="round"/><path id="Vector 10" d="M66.288 63.063s-4.173 0-9.45-5.25c-5.277-5.25-5.25-8.4-5.25-8.4" stroke="#C5CCDB" stroke-width="1.05" stroke-linecap="round" stroke-linejoin="round"/><path id="Vector 8" d="M66.18 18.528s-8.038 0-14.736 8.038-8.038 12.057-8.038 12.057" stroke="#C5CCDB" stroke-width="1.05" stroke-linecap="round" stroke-linejoin="round"/><circle id="Ellipse 5" cx="43.188" cy="39.962" r="14.7" fill="#06F"/><circle id="Ellipse 6" cx="19.038" cy="18.962" r="9.45" fill="#D3D8EA"/><circle id="Ellipse 7" cx="63.139" cy="18.962" r="5.25" fill="#E3E7F5"/><circle id="Ellipse 8" cx="25.863" cy="63.587" r="8.4" fill="#E3E7F5"/><circle id="Ellipse 9" cx="62.612" cy="64.112" r="6.3" fill="#D3D8EA"/></g></g></svg>