<svg width="80" height="80" viewBox="0 0 80 80" fill="none" xmlns="http://www.w3.org/2000/svg">
<path fill-rule="evenodd" clip-rule="evenodd" d="M65 67C69.4183 67 73 63.4183 73 59V24C73 19.5817 69.4183 16 65 16H15C10.5817 16 7 19.5817 7 24V59C7 63.4183 10.5817 67 15 67H65Z" fill="#E3E7F5"/>
<path d="M42.7849 59.5H15.5469C13.393 59.5 12.2473 56.9579 13.6738 55.3442L26.1764 41.2014C27.1175 40.1368 28.7555 40.0696 29.7806 41.0535L44.516 55.1963C46.1408 56.7558 45.037 59.5 42.7849 59.5Z" fill="#D3D8EA"/>
<path d="M65.6386 59.4999H34.177C32.085 59.4999 30.9183 57.0838 32.219 55.4454L48.7711 34.5973C49.8043 33.296 51.796 33.346 52.7626 34.6976L67.6721 55.5456C68.8553 57.2002 67.6727 59.4999 65.6386 59.4999Z" fill="#D3D8EA"/>
<path d="M61.8 60.7016C61.8 59.0999 60.5016 57.8016 58.9 57.8016C57.2984 57.8016 56 59.0999 56 60.7016C56 62.3032 57.2984 63.6016 58.9 63.6016C60.5016 63.6016 61.8 62.3032 61.8 60.7016Z" fill="#0066FF"/>
<path d="M61.8 51.2992C61.8 49.6976 60.5016 48.3992 58.9 48.3992C57.2984 48.3992 56 49.6976 56 51.2992C56 52.9008 57.2984 54.1992 58.9 54.1992C60.5016 54.1992 61.8 52.9008 61.8 51.2992Z" fill="#0066FF"/>
<path d="M74.1723 66.8555C74.1723 66.8555 68.5723 62.1055 68.5723 55.659C68.5723 49.2126 74.1723 45.1412 74.1723 45.1412" stroke="#0066FF" stroke-width="3.5"/>
<path d="M26 34C28.7614 34 31 31.7614 31 29C31 26.2386 28.7614 24 26 24C23.2386 24 21 26.2386 21 29C21 31.7614 23.2386 34 26 34Z" fill="#D3D8EA"/>
</svg>
