<svg width="80" height="80" viewBox="0 0 80 80" fill="none" xmlns="http://www.w3.org/2000/svg"><path fill-rule="evenodd" clip-rule="evenodd" d="M65 67a8 8 0 0 0 8-8V24a8 8 0 0 0-8-8H15a8 8 0 0 0-8 8v35a8 8 0 0 0 8 8h50z" fill="#E3E7F5"/><path d="M42.785 59.5H15.547c-2.154 0-3.3-2.542-1.873-4.156l12.502-14.143a2.5 2.5 0 0 1 3.605-.148l14.735 14.143c1.625 1.56.521 4.304-1.731 4.304z" fill="#D3D8EA"/><path d="M65.639 59.5H34.177c-2.092 0-3.259-2.416-1.958-4.055l16.552-20.848a2.5 2.5 0 0 1 3.992.1l14.91 20.849c1.182 1.654 0 3.954-2.034 3.954z" fill="#D3D8EA"/><path d="M61.8 60.702a2.9 2.9 0 1 0-5.8 0 2.9 2.9 0 0 0 5.8 0zM61.8 51.3a2.9 2.9 0 1 0-5.8 0 2.9 2.9 0 0 0 5.8 0z" fill="#06F"/><path d="M74.172 66.856s-5.6-4.75-5.6-11.197c0-6.446 5.6-10.518 5.6-10.518" stroke="#06F" stroke-width="3.5"/><path d="M26 34a5 5 0 1 0 0-10 5 5 0 0 0 0 10z" fill="#D3D8EA"/></svg>