<svg width="80" height="80" viewBox="0 0 80 80" fill="none" xmlns="http://www.w3.org/2000/svg">
<g id="&#231;&#169;&#186;&#231;&#138;&#182;&#230;&#128;&#129; Empty state/&#229;&#155;&#190;&#232;&#161;&#168;&#231;&#169;&#186;&#231;&#138;&#182;&#230;&#128;&#129;/&#230;&#138;&#152;&#231;&#186;&#191;&#229;&#155;&#190;">
<g id="Group 427318936">
<g id="Group 3465724">
<path id="Rectangle 3469108" d="M5.69922 16.95C5.69922 15.735 6.68419 14.75 7.89922 14.75C9.11425 14.75 10.0992 15.735 10.0992 16.95V59.85H5.69922V16.95Z" fill="#CED4EA"/>
<path id="Rectangle 3469109" d="M5.69922 59.85H76.0992C77.3143 59.85 78.2992 60.8349 78.2992 62.05C78.2992 63.265 77.3142 64.25 76.0992 64.25H10.0992C7.66916 64.25 5.69922 62.28 5.69922 59.85Z" fill="#CED4EA"/>
<g id="Group 3465725">
<g id="Group 3465726">
<path id="Vector 3" d="M14.5 26.85H76.1" stroke="#E3E7F5" stroke-width="1.1" stroke-linecap="round" stroke-linejoin="round" stroke-dasharray="5.5 3.3"/>
<path id="Vector 4" d="M14.5 47.3831H76.1" stroke="#E3E7F5" stroke-width="1.1" stroke-linecap="round" stroke-linejoin="round" stroke-dasharray="5.5 3.3"/>
</g>
</g>
</g>
<g id="Group 3465727">
<path id="Vector 1" d="M18.8984 51.6L31.6984 38.0816H50.2484L62.8984 20.25" stroke="#0066FF" stroke-width="4.4" stroke-linecap="round" stroke-linejoin="round"/>
<path id="Vector 147" d="M32.0984 42.8L18.8984 56.55V59.85H32.0984V42.8Z" fill="#E3E7F5"/>
<path id="Vector 149" d="M65.0984 24.65L51.8984 42.8V59.85H65.0984V24.65Z" fill="#E3E7F5"/>
<path id="Vector 148" d="M48.5984 42.8H35.3984V59.85H48.5984V42.8Z" fill="#E3E7F5"/>
</g>
</g>
</g>
</svg>
