<svg width="80" height="80" viewBox="0 0 80 80" fill="none" xmlns="http://www.w3.org/2000/svg"><g clip-path="url(#clip0_724_2379)"><mask id="mask0_724_2379" style="mask-type:alpha" maskUnits="userSpaceOnUse" x="23" y="-2" width="57" height="84"><path d="M42 33 65-2h15v83.5H23.5l29.5-42L42 33z" fill="#fff"/></mask><g mask="url(#mask0_724_2379)"><path d="M67 16H17a8 8 0 0 0-8 8v38a8 8 0 0 0 8 8h50a8 8 0 0 0 8-8V24a8 8 0 0 0-8-8z" fill="#E3E7F5"/><path fill-rule="evenodd" clip-rule="evenodd" d="M35 41.302c0-1.61 1.806-2.56 3.133-1.648l10.414 7.16a2 2 0 0 1-.036 3.32l-10.414 6.833c-1.33.873-3.097-.08-3.097-1.672V41.302z" fill="#D3D8EA"/><mask id="mask1_724_2379" style="mask-type:alpha" maskUnits="userSpaceOnUse" x="9" y="16" width="66" height="16"><path d="M67 16H17a8 8 0 0 0-8 8v8h66v-8a8 8 0 0 0-8-8z" fill="#D3D8EA"/></mask><g mask="url(#mask1_724_2379)"><path d="M67 16H17a8 8 0 0 0-8 8v8h66v-8a8 8 0 0 0-8-8z" fill="#E3E7F5"/><path stroke="#D3D8EA" stroke-width="2.4" stroke-linecap="square" d="M30.431 15.687 19.437 29.43"/><path stroke="#D3D8EA" stroke-width="2.4" stroke-linecap="square" d="M47.676 15.687 36.681 29.43"/><path stroke="#D3D8EA" stroke-width="2.4" stroke-linecap="square" d="M64.92 15.687 53.925 29.43"/></g><path stroke="#fff" stroke-width="2.4" stroke-linecap="square" d="M9.2 30.8 73.8 30.8"/></g><mask id="mask2_724_2379" style="mask-type:alpha" maskUnits="userSpaceOnUse" x="-4" y="-7" width="56" height="84"><path d="M31 34 52-7H-4v83.5h29.5l19-35L31 34z" fill="#fff"/></mask><g mask="url(#mask2_724_2379)"><path d="M63 11H13a8 8 0 0 0-8 8v38a8 8 0 0 0 8 8h50a8 8 0 0 0 8-8V19a8 8 0 0 0-8-8z" fill="#E3E7F5"/><path fill-rule="evenodd" clip-rule="evenodd" d="M31 36.302c0-1.61 1.806-2.56 3.133-1.648l10.414 7.16a2 2 0 0 1-.036 3.32l-10.414 6.833c-1.33.873-3.097-.08-3.097-1.672V36.302z" fill="#D3D8EA"/><mask id="mask3_724_2379" style="mask-type:alpha" maskUnits="userSpaceOnUse" x="5" y="11" width="66" height="16"><path d="M63 11H13a8 8 0 0 0-8 8v8h66v-8a8 8 0 0 0-8-8z" fill="#D3D8EA"/></mask><g mask="url(#mask3_724_2379)"><path d="M63 11H13a8 8 0 0 0-8 8v8h66v-8a8 8 0 0 0-8-8z" fill="#E3E7F5"/><path stroke="#D3D8EA" stroke-width="2.4" stroke-linecap="square" d="M26.431 10.687 15.437 24.43"/><path stroke="#D3D8EA" stroke-width="2.4" stroke-linecap="square" d="M43.676 10.687 32.681 24.43"/><path stroke="#D3D8EA" stroke-width="2.4" stroke-linecap="square" d="M60.92 10.687 49.925 24.43"/></g><path stroke="#fff" stroke-width="2.4" stroke-linecap="square" d="M5.2 25.8 69.8 25.8"/></g><path fill-rule="evenodd" clip-rule="evenodd" d="M60.336 45.358c2.115-3.516 7.213-3.516 9.328 0l9.47 15.745c2.182 3.627-.43 8.247-4.664 8.247H55.53c-4.233 0-6.846-4.62-4.664-8.247l9.47-15.745zm6.328 1.804c-.754-1.255-2.574-1.255-3.328 0l-9.47 15.745c-.78 1.294.153 2.943 1.664 2.943h18.94c1.511 0 2.443-1.649 1.665-2.943l-9.47-15.745z" fill="#06F"/><path fill-rule="evenodd" clip-rule="evenodd" d="M63.549 50.2a.698.698 0 0 0-.697.745l.385 5.622a.7.7 0 0 0 .018.12l.735 2.98a.698.698 0 0 0 .678.532h.666c.32 0 .6-.22.678-.531l.734-2.981a.7.7 0 0 0 .019-.12l.385-5.622a.698.698 0 0 0-.697-.746h-2.904zm.65 10.995a.698.698 0 0 0-.699.699v1.603c0 .386.313.698.698.698h1.608a.698.698 0 0 0 .698-.698v-1.603a.698.698 0 0 0-.698-.699h-1.608z" fill="#06F"/></g><defs><clipPath id="clip0_724_2379"><path fill="#fff" d="M0 0H80V80H0z"/></clipPath></defs></svg>