<svg width="80" height="80" viewBox="0 0 80 80" fill="none" xmlns="http://www.w3.org/2000/svg"><g id="空状态 Empty state/图表空状态/地图"><g id="Group 427318933"><g id="Group 3465732"><mask id="mask0_6140_220457" style="mask-type:alpha" maskUnits="userSpaceOnUse" x="11" y="13" width="58" height="58"><rect id="Rectangle 34624115" x="11" y="13.3" width="57.2" height="57.2" rx="8.8" fill="#C4C4C4"/></mask><g mask="url(#mask0_6140_220457)" fill="#E3E7F5"><path id="Rectangle 34624116" transform="rotate(-45 -13.273 39.674)" d="M-13.273 39.674H62.916V72.674H-13.273z"/><path id="Rectangle 34624117" transform="rotate(-45 48.4 34.101)" d="M48.4 34.101H98.041V117.666H48.4z"/><path id="Rectangle 34624118" transform="rotate(-45 8.8 74.801)" d="M8.801 74.801H58.442V158.36599999999999H8.801z"/></g></g><ellipse id="Ellipse 374" cx="26.951" cy="40.25" rx="7.15" ry="2.75" fill="#D3D8EA"/><path id="Vector" d="M26.95 10c-6.37 0-11.55 5.139-11.55 11.455 0 2.345.711 4.602 2.041 6.5a3.5 3.5 0 0 0 .213.331l8.43 11.022c.23.252.537.392.866.392.326 0 .635-.14.903-.439l8.392-10.976c.082-.11.153-.23.191-.3a11.326 11.326 0 0 0 2.064-6.53C38.5 15.139 33.32 10 26.95 10zm0 15.551a4.142 4.142 0 0 1-2.914-1.199 4.088 4.088 0 0 1-1.212-2.893 4.088 4.088 0 0 1 1.247-2.827 4.141 4.141 0 0 1 2.879-1.162c1.075 0 2.108.417 2.878 1.162a4.087 4.087 0 0 1 1.247 2.827 4.088 4.088 0 0 1-1.211 2.892 4.142 4.142 0 0 1-2.914 1.199v.001z" fill="#06F"/></g></g></svg>