<svg width="80" height="80" viewBox="0 0 80 80" fill="none" xmlns="http://www.w3.org/2000/svg">
<path d="M8 28C8 26.8954 8.89543 26 10 26H62C63.1046 26 64 26.8954 64 28V51C64 60.9411 55.9411 69 46 69H26C16.0589 69 8 60.9411 8 51V28Z" fill="#E3E7F5"/>
<path d="M5 71.4545C5 71.2035 5.20351 71 5.45455 71H68.5455C68.7965 71 69 71.2035 69 71.4545C69 73.9649 66.9649 76 64.4545 76H9.54546C7.03507 76 5 73.9649 5 71.4545Z" fill="#E3E7F5"/>
<path d="M62 34H65.5C69.0899 34 72 36.9101 72 40.5C72 44.0899 69.0899 47 65.5 47H62" stroke="#E3E7F5" stroke-width="6" stroke-linecap="round"/>
<path d="M21.8008 28V36" stroke="#0066FF" stroke-width="3.4" stroke-linecap="square"/>
<path d="M25.6 37H18C17.4477 37 17 37.4477 17 38V45.6C17 46.1523 17.4477 46.6 18 46.6H25.6C26.1523 46.6 26.6 46.1523 26.6 45.6V38C26.6 37.4477 26.1523 37 25.6 37Z" stroke="#0066FF" stroke-width="3.4" stroke-linecap="round" stroke-linejoin="round"/>
<path d="M22.8382 10.3164C22.8382 10.3164 20.0037 12.9922 21.54 15.8604C21.9176 16.8906 25.304 19.182 21.54 22.3164" stroke="#E3E7F5" stroke-width="3" stroke-linecap="square"/>
<path d="M49.9397 10.3164C49.9397 10.3164 47.1053 12.9922 48.6415 15.8604C49.0192 16.8906 52.4056 19.182 48.6415 22.3164" stroke="#E3E7F5" stroke-width="3" stroke-linecap="square"/>
<path d="M37.1008 7C37.1008 7 32.8423 10.4087 35.2031 15.0249C35.4785 15.7822 39.376 19.516 34.3008 24" stroke="#E3E7F5" stroke-width="3" stroke-linecap="square"/>
</svg>
