<svg width="80" height="80" viewBox="0 0 80 80" fill="none" xmlns="http://www.w3.org/2000/svg"><path fill-rule="evenodd" clip-rule="evenodd" d="M15 12h48a8 8 0 0 1 8 8v5.6H7V20a8 8 0 0 1 8-8zM7 28v34a8 8 0 0 0 8 8h48a8 8 0 0 0 8-8V28H7z" fill="#E3E7F5"/><path d="M15.8 20.998a1.8 1.8 0 1 0 0-3.6 1.8 1.8 0 0 0 0 3.6zM22.8 20.998a1.8 1.8 0 1 0 0-3.6 1.8 1.8 0 0 0 0 3.6zM29.8 20.998a1.8 1.8 0 1 0 0-3.6 1.8 1.8 0 0 0 0 3.6zM53 37H15a1 1 0 0 0-1 1v5.6a1 1 0 0 0 1 1h38a1 1 0 0 0 1-1V38a1 1 0 0 0-1-1zM41 52.602H15a1 1 0 0 0-1 1v3a1 1 0 0 0 1 1h26a1 1 0 0 0 1-1v-3a1 1 0 0 0-1-1z" fill="#D3D8EA"/><path fill-rule="evenodd" clip-rule="evenodd" d="M73.61 49.662a1.4 1.4 0 0 1 0 1.98L59.043 66.208a1.4 1.4 0 0 1-1.98 0l-1.272-1.273a1.4 1.4 0 0 1 0-1.98L70.357 48.39a1.4 1.4 0 0 1 1.98 0l1.273 1.273z" fill="#06F"/><path fill-rule="evenodd" clip-rule="evenodd" d="M72.338 66.211a1.4 1.4 0 0 1-1.98 0L55.792 51.645a1.4 1.4 0 0 1 0-1.98l1.273-1.273a1.4 1.4 0 0 1 1.98 0L73.61 62.96a1.4 1.4 0 0 1 0 1.98l-1.273 1.272z" fill="#06F"/></svg>