<svg width="80" height="80" viewBox="0 0 80 80" fill="none" xmlns="http://www.w3.org/2000/svg"><g id="空状态 Empty state/图表空状态/折线图"><g id="Group 427318936"><g id="Group 3465724"><path id="Rectangle 3469108" d="M5.7 16.95a2.2 2.2 0 0 1 4.4 0v42.9H5.7v-42.9z" fill="#CED4EA"/><path id="Rectangle 3469109" d="M5.7 59.85h70.4a2.2 2.2 0 1 1 0 4.4h-66a4.4 4.4 0 0 1-4.4-4.4z" fill="#CED4EA"/><g id="Group 3465725"><g id="Group 3465726" stroke="#E3E7F5" stroke-width="1.1" stroke-linecap="round" stroke-linejoin="round" stroke-dasharray="5.5 3.3"><path id="Vector 3" d="M14.5 26.85h61.6"/><path id="Vector 4" d="M14.5 47.383h61.6"/></g></g></g><g id="Group 3465727"><path id="Vector 1" d="m18.898 51.6 12.8-13.518h18.55l12.65-17.832" stroke="#06F" stroke-width="4.4" stroke-linecap="round" stroke-linejoin="round"/><path id="Vector 147" d="m32.098 42.8-13.2 13.75v3.3h13.2V42.8z" fill="#E3E7F5"/><path id="Vector 149" d="m65.098 24.65-13.2 18.15v17.05h13.2v-35.2z" fill="#E3E7F5"/><path id="Vector 148" d="M48.598 42.8h-13.2v17.05h13.2V42.8z" fill="#E3E7F5"/></g></g></g></svg>