<svg width="80" height="80" viewBox="0 0 80 80" fill="none" xmlns="http://www.w3.org/2000/svg"><path fill-rule="evenodd" clip-rule="evenodd" d="M64 37.996a6 6 0 0 0 6-6v-14a6 6 0 0 0-6-6H10a6 6 0 0 0-6 6v14a6 6 0 0 0 6 6h54zM64 70a6 6 0 0 0 6-6V50a6 6 0 0 0-6-6H10a6 6 0 0 0-6 6v14a6 6 0 0 0 6 6h54z" fill="#E3E7F5"/><rect x="37" y="55" width="14" height="4" rx="1" fill="#D3D8EA"/><circle cx="16" cy="25" r="3" fill="#D3D8EA"/><circle cx="16" cy="57" r="3" fill="#D3D8EA"/><circle cx="26.5" cy="25" r="3" fill="#D3D8EA"/><circle cx="26.5" cy="57" r="3" fill="#D3D8EA"/><circle cx="64" cy="57" r="12" stroke="#06F" stroke-width="3.5"/><path fill-rule="evenodd" clip-rule="evenodd" d="M62.548 50a.698.698 0 0 0-.697.746l.385 5.622a.7.7 0 0 0 .019.12l.734 2.98a.698.698 0 0 0 .678.532h.666c.321 0 .601-.22.678-.531l.735-2.982a.7.7 0 0 0 .018-.119l.385-5.622a.698.698 0 0 0-.697-.746h-2.904zm.65 10.996a.698.698 0 0 0-.699.698v1.604c0 .385.313.698.699.698h1.607a.698.698 0 0 0 .699-.698v-1.604a.698.698 0 0 0-.699-.698h-1.607z" fill="#06F"/><rect x="37" y="23" width="23" height="4" rx="1" fill="#D3D8EA"/></svg>