<svg width="80" height="80" viewBox="0 0 80 80" fill="none" xmlns="http://www.w3.org/2000/svg">
<g id="&#231;&#169;&#186;&#231;&#138;&#182;&#230;&#128;&#129; Empty state/&#229;&#155;&#190;&#232;&#161;&#168;&#231;&#169;&#186;&#231;&#138;&#182;&#230;&#128;&#129;/&#229;&#133;&#179;&#231;&#179;&#187;&#229;&#155;&#190;">
<g id="Group 427318934">
<path id="Vector 7" d="M18.0254 17.1886C18.0254 17.1886 20.7047 23.8869 26.0633 29.2455C31.4219 34.6041 38.1202 37.2834 38.1202 37.2834" stroke="#C5CCDB" stroke-width="1.05" stroke-linecap="round" stroke-linejoin="round"/>
<path id="Vector 9" d="M24.2871 64.1125C24.2871 64.1125 30.5871 61.5704 35.8371 53.9441C41.0871 46.3178 44.2371 39.9625 44.2371 39.9625" stroke="#C5CCDB" stroke-width="1.05" stroke-linecap="round" stroke-linejoin="round"/>
<path id="Vector 10" d="M66.2879 63.0625C66.2879 63.0625 62.1148 63.0625 56.8379 57.8125C51.561 52.5625 51.5879 49.4125 51.5879 49.4125" stroke="#C5CCDB" stroke-width="1.05" stroke-linecap="round" stroke-linejoin="round"/>
<path id="Vector 8" d="M66.1804 18.528C66.1804 18.528 58.1425 18.528 51.4442 26.5659C44.7459 34.6039 43.4062 38.6228 43.4062 38.6228" stroke="#C5CCDB" stroke-width="1.05" stroke-linecap="round" stroke-linejoin="round"/>
<circle id="Ellipse 5" cx="43.1883" cy="39.9625" r="14.7" fill="#0066FF"/>
<circle id="Ellipse 6" cx="19.0379" cy="18.9625" r="9.45" fill="#D3D8EA"/>
<circle id="Ellipse 7" cx="63.1387" cy="18.9625" r="5.25" fill="#E3E7F5"/>
<circle id="Ellipse 8" cx="25.8629" cy="63.5875" r="8.4" fill="#E3E7F5"/>
<circle id="Ellipse 9" cx="62.6125" cy="64.1125" r="6.3" fill="#D3D8EA"/>
</g>
</g>
</svg>
