<svg width="80" height="80" viewBox="0 0 80 80" fill="none" xmlns="http://www.w3.org/2000/svg"><path fill-rule="evenodd" clip-rule="evenodd" d="M48.5 8v10a5.5 5.5 0 0 0 5.5 5.5h10V66a8 8 0 0 1-8 8H18a8 8 0 0 1-8-8V16a8 8 0 0 1 8-8h30.5zm3 .017V18a2.5 2.5 0 0 0 2.5 2.5h9.98a6 6 0 0 0-1.722-3.729l-6.95-6.999A6 6 0 0 0 51.5 8.017z" fill="#E3E7F5"/><path d="M62.498 73.496c7.18 0 13-5.82 13-13s-5.82-13-13-13-13 5.82-13 13 5.82 13 13 13z" stroke="#06F" stroke-width="3.5"/><path d="M55.773 60.496h13.449" stroke="#06F" stroke-width="3.4"/><path opacity=".6" d="M42.6 25H19.4a1.4 1.4 0 0 0-1.4 1.4v3.2a1.4 1.4 0 0 0 1.4 1.4h23.2a1.4 1.4 0 0 0 1.4-1.4v-3.2a1.4 1.4 0 0 0-1.4-1.4zM50.6 39H19.4a1.4 1.4 0 0 0-1.4 1.4v3.2a1.4 1.4 0 0 0 1.4 1.4h31.2a1.4 1.4 0 0 0 1.4-1.4v-3.2a1.4 1.4 0 0 0-1.4-1.4z" fill="#C5CADD"/></svg>