<svg width="80" height="80" viewBox="0 0 80 80" fill="none" xmlns="http://www.w3.org/2000/svg"><path d="M66 12H16a8 8 0 0 0-8 8v38a8 8 0 0 0 8 8h50a8 8 0 0 0 8-8V20a8 8 0 0 0-8-8z" fill="#E3E7F5"/><path fill-rule="evenodd" clip-rule="evenodd" d="M34 37.302c0-1.61 1.806-2.56 3.133-1.648l10.414 7.16a2 2 0 0 1-.036 3.32l-10.414 6.833c-1.33.873-3.097-.08-3.097-1.672V37.302z" fill="#D3D8EA"/><mask id="mask0_724_2216" style="mask-type:alpha" maskUnits="userSpaceOnUse" x="8" y="12" width="66" height="16"><path d="M66 12H16a8 8 0 0 0-8 8v8h66v-8a8 8 0 0 0-8-8z" fill="#D3D8EA"/></mask><g mask="url(#mask0_724_2216)"><path d="M66 12H16a8 8 0 0 0-8 8v8h66v-8a8 8 0 0 0-8-8z" fill="#E3E7F5"/><path stroke="#D3D8EA" stroke-width="2.4" stroke-linecap="square" d="M29.431 11.687 18.437 25.43"/><path stroke="#D3D8EA" stroke-width="2.4" stroke-linecap="square" d="M46.676 11.687 35.681 25.43"/><path stroke="#D3D8EA" stroke-width="2.4" stroke-linecap="square" d="M63.92 11.687 52.925 25.43"/></g><path stroke="#fff" stroke-width="2.4" stroke-linecap="square" d="M8.2 26.8 72.8 26.8"/><circle cx="58.9" cy="60.702" r="2.9" transform="rotate(-90 58.9 60.702)" fill="#06F"/><circle cx="58.9" cy="51.299" r="2.9" transform="rotate(-90 58.9 51.3)" fill="#06F"/><path d="M74.172 66.856s-5.6-4.75-5.6-11.197c0-6.446 5.6-10.518 5.6-10.518" stroke="#06F" stroke-width="3.5"/></svg>