<svg width="80" height="80" viewBox="0 0 80 80" fill="none" xmlns="http://www.w3.org/2000/svg">
<path d="M57 11H15C11.6863 11 9 13.6863 9 17V65C9 68.3137 11.6863 71 15 71H57C60.3137 71 63 68.3137 63 65V17C63 13.6863 60.3137 11 57 11Z" fill="#E3E7F5"/>
<line x1="30" y1="27.5" x2="54" y2="27.5" stroke="#D3D8EA" stroke-width="3"/>
<path d="M19.5996 25L25.1996 30.6" stroke="#D3D8EA" stroke-width="3" stroke-linecap="square"/>
<path d="M25.1996 25L19.5996 30.6" stroke="#D3D8EA" stroke-width="3" stroke-linecap="square"/>
<line x1="18" y1="40.5" x2="38" y2="40.5" stroke="#D3D8EA" stroke-width="3"/>
<line x1="18" y1="53.5" x2="32" y2="53.5" stroke="#D3D8EA" stroke-width="3"/>
<path d="M22.5 8.5C22.5 7.39543 23.3954 6.5 24.5 6.5H47.5C48.6046 6.5 49.5 7.39543 49.5 8.5V13.5C49.5 14.6046 48.6046 15.5 47.5 15.5H24.5C23.3954 15.5 22.5 14.6046 22.5 13.5V8.5Z" fill="#D3D8EA"/>
<circle cx="53" cy="51" r="13" stroke="#0066FF" stroke-width="3.5"/>
<line x1="63.0607" y1="60.4393" x2="64.7577" y2="62.1364" stroke="#0066FF" stroke-width="3"/>
<path d="M64.5053 64.8445C63.8243 64.0292 63.8781 62.829 64.6292 62.0779C65.3803 61.3268 66.5806 61.273 67.3958 61.954L72.9362 66.5818C74.1537 67.5989 74.2363 69.4414 73.1145 70.5632C71.9927 71.6849 70.1502 71.6024 69.1332 70.3849L64.5053 64.8445Z" fill="#0066FF" stroke="#0066FF"/>
<path fill-rule="evenodd" clip-rule="evenodd" d="M59.7832 44.3379L57.4286 46.928L56.7311 46.2741C55.0871 44.733 52.6984 44.3284 50.6656 45.1652L49.5597 45.6204L47.9902 42.4815L49.3334 41.9286C52.6123 40.579 56.4624 41.2248 59.1248 43.7207L59.7832 44.3379Z" fill="#0066FF"/>
</svg>
