<svg width="80" height="80" viewBox="0 0 80 80" fill="none" xmlns="http://www.w3.org/2000/svg"><rect x="55.199" y="42.4" width="15.6" height="15.6" rx="7.8" stroke="#A8B0BF" stroke-width="2.4"/><path clip-rule="evenodd" d="M63 58c7.18 0 13 5.82 13 13H50c0-7.18 5.82-13 13-13z" stroke="#A8B0BF" stroke-width="2.4" stroke-linecap="round" stroke-linejoin="round"/><path d="M50.36 28.3v-4.5c0-8.505-6.894-15.4-15.4-15.4-8.505 0-15.4 6.895-15.4 15.4v4.5" stroke="#A8B0BF" stroke-width="2.4"/><circle cx="35.5" cy="44.5" r="4.5" stroke="#A8B0BF" stroke-width="2.4"/><path d="M35.4 49.36v11M36.72 55.08h4.4M62 35.297V35a6 6 0 0 0-6-6H15a6 6 0 0 0-6 6v30a6 6 0 0 0 6 6h26.242" stroke="#A8B0BF" stroke-width="2.4" stroke-linecap="square"/></svg>