<svg width="80" height="80" viewBox="0 0 80 80" fill="none" xmlns="http://www.w3.org/2000/svg"><circle cx="61.301" cy="55.5" r="14.5" stroke="#A8B0BF" stroke-width="2.4"/><path d="M61.3 49v7.5" stroke="#A8B0BF" stroke-width="2.4" stroke-linecap="square"/><circle cx="61.3" cy="61.7" r="1.7" fill="#A8B0BF"/><path d="M38 23h20M38 54h4" stroke="#A8B0BF" stroke-width="2.4" stroke-linecap="square"/><rect x="8" y="11" width="61" height="24" rx="6" stroke="#A8B0BF" stroke-width="2.4" stroke-linecap="round" stroke-linejoin="round"/><circle cx="16.401" cy="23" r="1.6" fill="#A8B0BF"/><circle cx="23" cy="23" r="1.6" fill="#A8B0BF"/><circle cx="29.6" cy="23" r="1.6" fill="#A8B0BF"/><circle cx="16.401" cy="54" r="1.6" fill="#A8B0BF"/><circle cx="23" cy="54" r="1.6" fill="#A8B0BF"/><circle cx="29.6" cy="54" r="1.6" fill="#A8B0BF"/><path d="M42 66H14a6 6 0 0 1-6-6V49a6 6 0 0 1 6-6h28" stroke="#A8B0BF" stroke-width="2.4" stroke-linecap="square" stroke-linejoin="round"/><circle cx="16.401" cy="54.5" r="1.6" fill="#A8B0BF"/><circle cx="23" cy="54.5" r="1.6" fill="#A8B0BF"/><circle cx="29.6" cy="54.5" r="1.6" fill="#A8B0BF"/></svg>