<svg width="220" height="160" viewBox="0 0 220 160" fill="none" xmlns="http://www.w3.org/2000/svg"><rect x="63" y="34" width="94" height="110" rx="12" fill="url(#paint0_linear_726_1880)"/><mask id="mask0_726_1880" style="mask-type:alpha" maskUnits="userSpaceOnUse" x="63" y="34" width="94" height="111"><rect x="63" y="34" width="94" height="110" rx="12" fill="url(#paint1_linear_726_1880)"/></mask><g mask="url(#mask0_726_1880)"><path fill="url(#paint2_linear_726_1880)" stroke="#fff" stroke-width=".917" d="M72.458 41.459H147.541V135.542H72.458z"/><rect x="35" y="44" width="70" height="17" rx="6" fill="url(#paint3_linear_726_1880)"/><path opacity=".8" d="M144.501 103.213c3.435-5.594 11.563-5.594 14.998 0l19.27 31.382c3.6 5.864-.619 13.405-7.499 13.405h-38.54c-6.881 0-11.099-7.541-7.499-13.405l19.27-31.382z" fill="url(#paint4_linear_726_1880)"/></g><path d="M148.866 111.492c2.334-3.861 7.934-3.861 10.268 0l15.361 25.404c2.418 3.998-.462 9.104-5.134 9.104h-30.722c-4.672 0-7.552-5.106-5.134-9.104l15.361-25.404z" fill="#06F"/><path fill-rule="evenodd" clip-rule="evenodd" d="M152.4 118a1.1 1.1 0 0 0-1.098 1.161l.488 8.888.93 4.696a1.1 1.1 0 0 0 1.079.887h.402c.526 0 .978-.372 1.08-.887l.929-4.696.489-8.888A1.1 1.1 0 0 0 155.6 118h-3.2zm.398 17.103a1.1 1.1 0 0 0-1.1 1.1v2.397a1.1 1.1 0 0 0 1.1 1.1h2.403a1.1 1.1 0 0 0 1.1-1.1v-2.397a1.1 1.1 0 0 0-1.1-1.1h-2.403z" fill="url(#paint5_linear_726_1880)"/><path d="M104.276 34.95a8.485 8.485 0 0 0 3.824-4.154c.716-1.671 3.084-1.671 3.8 0a8.485 8.485 0 0 0 3.824 4.154h-11.448z" stroke="url(#paint6_linear_726_1880)" stroke-width="12.1"/><mask id="mask1_726_1880" style="mask-type:alpha" maskUnits="userSpaceOnUse" x="91" y="23" width="38" height="19"><path d="M104.276 34.95a8.485 8.485 0 0 0 3.824-4.154c.716-1.671 3.084-1.671 3.8 0a8.485 8.485 0 0 0 3.824 4.154h-11.448z" stroke="url(#paint7_linear_726_1880)" stroke-width="12.1"/></mask><g mask="url(#mask1_726_1880)"><path opacity=".4" fill="url(#paint8_linear_726_1880)" d="M75.563 32.482H138.251V45.370999999999995H75.563z"/></g><circle cx="110" cy="28.2" r="2.2" fill="#757B94"/><rect x="32.6" y="40.6" width="66.8" height="14.8" rx="5.4" fill="#EBEDF5" fill-opacity=".6" stroke="#282C33" stroke-width="1.2"/><path fill-rule="evenodd" clip-rule="evenodd" d="M88.3 50.3a2.3 2.3 0 1 0 0-4.6 2.3 2.3 0 0 0 0 4.6zM46.6 48a2.3 2.3 0 1 1-4.6 0 2.3 2.3 0 0 1 4.6 0zm11 0a2.3 2.3 0 1 1-4.6 0 2.3 2.3 0 0 1 4.6 0zm8.7 2.3a2.3 2.3 0 1 0 0-4.6 2.3 2.3 0 0 0 0 4.6zM79.6 48a2.3 2.3 0 1 1-4.6 0 2.3 2.3 0 0 1 4.6 0z" fill="#06F"/><path d="M86 59h32l16 14.172V123H86V59z" fill="#BFD9FF"/><path fill-rule="evenodd" clip-rule="evenodd" d="M119.524 60.35 118 59h-2.286v2h1.528l.956.847 1.326-1.497zM134 75.544h-2v-1.472l-.85-.753 1.326-1.497 1.524 1.35v2.372zm-3.81-5.747-1.326 1.498-3.047-2.7 1.326-1.497 3.047 2.7zm-5.333-4.723-1.326 1.497-3.048-2.7 1.327-1.497 3.047 2.7zM134 79.104h-2v4.745h2v-4.746zm0 8.304h-2v4.746h2v-4.746zm0 8.305h-2v4.746h2v-4.746zm0 8.305h-2v4.745h2v-4.745zm0 8.305h-2v4.745h2v-4.745zm0 8.304h-2V121h-.286v2H134v-2.373zM128.286 123v-2h-4.572v2h4.572zm-8 0v-2h-4.572v2h4.572zm-8 0v-2h-4.572v2h4.572zm-8 0v-2h-4.572v2h4.572zm-8 0v-2h-4.572v2h4.572zm-8 0v-2H88v-.286h-2V123h2.286zM86 117.286h2v-4.572h-2v4.572zm0-8h2v-4.572h-2v4.572zm0-8h2v-4.572h-2v4.572zm0-8h2v-4.572h-2v4.572zm0-8h2v-4.572h-2v4.572zm0-8h2v-4.572h-2v4.572zm0-8h2v-4.572h-2v4.572zm0-8h2V61h.286v-2H86v2.286zM91.714 59v2h4.572v-2h-4.572zm8 0v2h4.572v-2h-4.572zm8 0v2h4.572v-2h-4.572z" fill="#06F"/><path d="M166.709 47.88c-.56-.993-1.367-3.12-.116-3.675 1.563-.694 3.721 4.87 5.284 4.175 1.564-.695-.956-5.165.607-5.86 1.251-.555 4.044 2.552 5.285 4.175M161.75 35.87c-2.013-3.242-5.079-8.402-2.821-9.53 2.257-1.13 7.353 7.788 9.593 5.58 2.24-2.21-7.336-7.9-5.079-10.158 2.257-2.257 7.401 6.063 9.254 4.577 1.852-1.486-4.611-9.547-4.611-9.547M145.224 29.567c1.12.084 3.386-.085 3.486-1.43.126-1.68-5.819-1.279-5.694-2.96.125-1.68 5.167-1.304 5.293-2.985.1-1.344-5.206-.747-5.695-2.96-.488-2.212 6.135-3.103 6.135-3.103" stroke="#D3D9E6" stroke-width="1.8"/><defs><linearGradient id="paint0_linear_726_1880" x1="63" y1="34" x2="157" y2="34" gradientUnits="userSpaceOnUse"><stop stop-color="#CFD4E6"/><stop offset="1" stop-color="#DBE0F0"/></linearGradient><linearGradient id="paint1_linear_726_1880" x1="63" y1="34" x2="157" y2="34" gradientUnits="userSpaceOnUse"><stop stop-color="#C0C5D8"/><stop offset="1" stop-color="#EBF0FB"/></linearGradient><linearGradient id="paint2_linear_726_1880" x1="72" y1="41" x2="148" y2="41" gradientUnits="userSpaceOnUse"><stop stop-color="#CFD4E4"/><stop offset="1" stop-color="#DBE1F2"/></linearGradient><linearGradient id="paint3_linear_726_1880" x1="64" y1="50" x2="104.34" y2="59.692" gradientUnits="userSpaceOnUse"><stop stop-color="#BBC0D5"/><stop offset="1" stop-color="#CDD3E4"/></linearGradient><linearGradient id="paint4_linear_726_1880" x1="123.319" y1="140.271" x2="149.005" y2="135.33" gradientUnits="userSpaceOnUse"><stop stop-color="#B6BDD2"/><stop offset="1" stop-color="#D7DDEC"/></linearGradient><linearGradient id="paint5_linear_726_1880" x1="152.945" y1="121.498" x2="162.037" y2="124.815" gradientUnits="userSpaceOnUse"><stop offset=".02" stop-color="#fff"/><stop offset="1" stop-color="#fff" stop-opacity=".55"/></linearGradient><linearGradient id="paint6_linear_726_1880" x1="91.5" y1="30.25" x2="128.5" y2="30.25" gradientUnits="userSpaceOnUse"><stop stop-color="#CBD1E7"/><stop offset="1" stop-color="#DDE3F1"/></linearGradient><linearGradient id="paint7_linear_726_1880" x1="91.5" y1="30.25" x2="128.5" y2="30.25" gradientUnits="userSpaceOnUse"><stop stop-color="#BEC2D0"/><stop offset="1" stop-color="#DBE0F1"/></linearGradient><linearGradient id="paint8_linear_726_1880" x1="106.906" y1="32.482" x2="106.906" y2="45.37" gradientUnits="userSpaceOnUse"><stop stop-color="#868FAE" stop-opacity="0"/><stop offset="1" stop-color="#61677C"/></linearGradient></defs></svg>