<svg width="220" height="160" viewBox="0 0 220 160" fill="none" xmlns="http://www.w3.org/2000/svg"><path d="M83.5 54c0-12.426 10.074-22.5 22.5-22.5s22.5 10.074 22.5 22.5v32.5h-45V54z" stroke="url(#paint0_linear_2539_132193)" stroke-width="11"/><mask id="mask0_2539_132193" style="mask-type:alpha" maskUnits="userSpaceOnUse" x="78" y="26" width="56" height="66"><path d="M83.5 54c0-12.426 10.074-22.5 22.5-22.5s22.5 10.074 22.5 22.5v32.5h-45V54z" stroke="url(#paint1_linear_2539_132193)" stroke-width="11"/></mask><g mask="url(#mask0_2539_132193)"><path opacity=".6" fill="url(#paint2_linear_2539_132193)" d="M73.051 59.8H137.95100000000002V77.4H73.051z"/></g><rect x="51" y="67" width="110" height="77" rx="12" fill="url(#paint3_linear_2539_132193)"/><mask id="mask1_2539_132193" style="mask-type:alpha" maskUnits="userSpaceOnUse" x="51" y="67" width="110" height="77"><rect x="51" y="67" width="110" height="77" rx="12" fill="url(#paint4_linear_2539_132193)"/></mask><g mask="url(#mask1_2539_132193)"><path opacity=".8" fill-rule="evenodd" clip-rule="evenodd" d="M131 111.992a8.793 8.793 0 0 1 5.582-8.185l19.2-7.543a8.802 8.802 0 0 1 6.436 0l19.2 7.543a8.793 8.793 0 0 1 5.582 8.185v19.675c0 11.183-16.28 22.367-24.012 27.048a7.653 7.653 0 0 1-7.976 0C147.28 154.034 131 142.85 131 131.667v-19.675z" fill="url(#paint5_linear_2539_132193)"/></g><path fill-rule="evenodd" clip-rule="evenodd" d="M108.97 104.215a6 6 0 1 0-5.938 0l-4.683 10.703a2.2 2.2 0 0 0 2.016 3.082h11.272a2.2 2.2 0 0 0 2.015-3.082l-4.682-10.703z" fill="url(#paint6_linear_2539_132193)"/><path fill-rule="evenodd" clip-rule="evenodd" d="M108.97 102.215a6 6 0 1 0-5.938 0l-4.683 10.703a2.2 2.2 0 0 0 2.016 3.082h11.272a2.2 2.2 0 0 0 2.015-3.082l-4.682-10.703z" fill="#757B94"/><path fill-rule="evenodd" clip-rule="evenodd" d="M139 115.274a5.994 5.994 0 0 1 3.824-5.588l15-5.839a5.996 5.996 0 0 1 4.352 0l15 5.839a5.994 5.994 0 0 1 3.824 5.588v14.972c0 8.552-12.93 16.462-18.498 19.471a5.24 5.24 0 0 1-5.004 0C151.93 146.708 139 138.798 139 130.246v-14.972z" fill="#06F"/><path d="M148 126c0-6.627 5.373-12 12-12s12 5.373 12 12c0 6.628-5.373 12-12 12s-12-5.372-12-12z" fill="url(#paint7_linear_2539_132193)"/><path d="m152.111 118.111 17.778 17.778" stroke="#06F" stroke-width="3.5" stroke-linecap="round"/><path d="M54.838 48.206c-1.123-.104-3.402.024-3.527 1.372-.157 1.685 5.82 1.391 5.663 3.076-.157 1.685-5.212 1.215-5.37 2.9-.125 1.348 3.724 2.613 5.663 3.076M41.312 80.951c.564-.977 1.399-3.1.227-3.777-1.466-.846-3.695 4.707-5.16 3.86-1.466-.846 1.072-5.243-.393-6.089-1.173-.677-2.946 4.384-5.16 3.86-2.215-.522-.133-6.901-.133-6.901" stroke="#D3D9E6" stroke-width="1.8"/><path d="m37.773 59.893-7-10.819 12.728 6.364-2.545 2.546 7.636 11.455-13.364-7 2.545-2.546z" fill="#D3D9E6"/><defs><linearGradient id="paint0_linear_2539_132193" x1="78" y1="68.35" x2="134" y2="68.35" gradientUnits="userSpaceOnUse"><stop stop-color="#D3D8E9"/><stop offset="1" stop-color="#D8DDED"/></linearGradient><linearGradient id="paint1_linear_2539_132193" x1="78" y1="68.35" x2="134" y2="68.35" gradientUnits="userSpaceOnUse"><stop stop-color="#BEC2D0"/><stop offset="1" stop-color="#D8DCE8"/></linearGradient><linearGradient id="paint2_linear_2539_132193" x1="105.501" y1="59.8" x2="105.501" y2="77.4" gradientUnits="userSpaceOnUse"><stop stop-color="#868FAE" stop-opacity="0"/><stop offset="1" stop-color="#61677C"/></linearGradient><linearGradient id="paint3_linear_2539_132193" x1="51" y1="67" x2="161" y2="67" gradientUnits="userSpaceOnUse"><stop stop-color="#CFD4E6"/><stop offset="1" stop-color="#DBE0F0"/></linearGradient><linearGradient id="paint4_linear_2539_132193" x1="51" y1="67" x2="161" y2="67" gradientUnits="userSpaceOnUse"><stop stop-color="#B2BCE1"/><stop offset="1" stop-color="#D5DAE9"/></linearGradient><linearGradient id="paint5_linear_2539_132193" x1="133.625" y1="137.24" x2="160.53" y2="102.289" gradientUnits="userSpaceOnUse"><stop stop-color="#BDC3D9"/><stop offset="1" stop-color="#D5DAE9"/></linearGradient><linearGradient id="paint6_linear_2539_132193" x1="106.001" y1="93" x2="106.001" y2="117.675" gradientUnits="userSpaceOnUse"><stop stop-color="#B1BAD4"/><stop offset="1" stop-color="#B9C1D8"/></linearGradient><linearGradient id="paint7_linear_2539_132193" x1="155.311" y1="117.869" x2="169.852" y2="139.183" gradientUnits="userSpaceOnUse"><stop offset=".02" stop-color="#fff"/><stop offset="1" stop-color="#fff" stop-opacity=".55"/></linearGradient></defs></svg>