<svg width="220" height="160" viewBox="0 0 220 160" fill="none" xmlns="http://www.w3.org/2000/svg"><rect x="37" y="40" width="146" height="98" rx="12" fill="url(#paint0_linear_726_1990)"/><mask id="mask0_726_1990" style="mask-type:alpha" maskUnits="userSpaceOnUse" x="37" y="40" width="146" height="98"><rect x="37" y="40" width="146" height="98" rx="12" fill="url(#paint1_linear_726_1990)"/></mask><g mask="url(#mask0_726_1990)"><path fill-rule="evenodd" clip-rule="evenodd" d="M170 82h-60v4h60v-4zm0 10h-60v4h60v-4zm-60 10h60v4h-60v-4zm37 10h-37v4h37v-4z" fill="url(#paint2_linear_726_1990)"/><path opacity=".8" fill-rule="evenodd" clip-rule="evenodd" d="M165.358 87.767c-11.372 0-20.591 9.219-20.591 20.591 0 11.372 9.219 20.591 20.591 20.591 11.372 0 20.591-9.219 20.591-20.591 0-11.372-9.219-20.591-20.591-20.591zM135.9 108.358c0-16.27 13.189-29.458 29.458-29.458s29.458 13.189 29.458 29.458a29.329 29.329 0 0 1-6.156 18.023l1.226 1.225a4.904 4.904 0 0 1 3.8 1.099l10.665 8.909a6.16 6.16 0 1 1-8.676 8.676l-8.909-10.665a4.905 4.905 0 0 1-1.062-4.033l-1.01-1.01a29.348 29.348 0 0 1-19.336 7.234c-16.269 0-29.458-13.189-29.458-29.458z" fill="url(#paint3_linear_726_1990)"/><path d="M50 80h56v37H50V80z" fill="#BFD9FF"/><path fill-rule="evenodd" clip-rule="evenodd" d="M50 82.114V80h2.286v2H52v.114h-2zM60.286 80h-4.572v2h4.572v-2zm3.428 0v2h4.572v-2h-4.572zm8 0v2h4.572v-2h-4.572zm8 0v2h4.572v-2h-4.572zm8 0v2h4.572v-2h-4.572zm8 0v2h4.572v-2h-4.572zm8 0v2H104v.114h2V80h-2.286zM106 85.286h-2v4.228h2v-4.228zm0 7.4h-2v4.228h2v-4.228zm0 7.4h-2v4.228h2v-4.228zm0 7.4h-2v4.228h2v-4.228zm0 7.4h-2V115h-.286v2H106v-2.114zM100.286 117v-2h-4.572v2h4.572zm-8 0v-2h-4.572v2h4.572zm-8 0v-2h-4.572v2h4.572zm-8 0v-2h-4.572v2h4.572zm-8 0v-2h-4.572v2h4.572zm-8 0v-2h-4.572v2h4.572zm-8 0v-2H52v-.114h-2V117h2.286zM50 111.714h2v-4.228h-2v4.228zm0-7.4h2v-4.228h-2v4.228zm0-7.4h2v-4.228h-2v4.228zm0-7.4h2v-4.228h-2v4.228z" fill="#06F"/></g><path stroke="#fff" d="M37 55.5 183 55.5"/><circle cx="47.7" cy="47.7" r="1.7" fill="#757B94"/><circle cx="54.5" cy="47.7" r="1.7" fill="#757B94"/><circle cx="61.3" cy="47.7" r="1.7" fill="#757B94"/><rect x="50" y="68" width="32" height="4" rx="2" fill="#06F"/><path fill-rule="evenodd" clip-rule="evenodd" d="M14.807 52.073c.781-1.383 2.122-2.316 4.016-2.823 1.637-.439 3.084-.362 4.353.28 1.262.617 2.102 1.703 2.511 3.23.334 1.249.282 2.382-.14 3.368-.155.342-.694 1.196-1.617 2.563a4.385 4.385 0 0 0-.72 1.612c-.145.585-.122 1.18.041 1.79l.116.433-2.738.734-.116-.433c-.252-.942-.317-1.798-.136-2.557.142-.802.834-2.107 2.045-3.932l.306-.6c.303-.71.395-1.39.218-2.052-.239-.891-.68-1.51-1.302-1.89-.648-.371-1.458-.427-2.38-.18-1.15.308-1.9.89-2.213 1.767-.297.734-.296 1.662.005 2.782l-2.687.72c-.498-1.859-.35-3.454.438-4.812zm6.873 12.459a1.1 1.1 0 0 0-.778 1.347l.31 1.159a1.1 1.1 0 0 0 1.348.778l1.159-.31a1.1 1.1 0 0 0 .778-1.348l-.31-1.16a1.1 1.1 0 0 0-1.348-.777l-1.16.31zM28.067 26.062c1.368-.807 2.995-.945 4.889-.437 1.637.439 2.852 1.228 3.63 2.42.785 1.165.969 2.524.56 4.052-.335 1.248-.947 2.203-1.806 2.847-.305.218-1.199.688-2.681 1.41a4.382 4.382 0 0 0-1.43 1.037c-.418.434-.696.96-.86 1.57l-.115.434-2.738-.734.116-.433c.252-.942.624-1.716 1.16-2.282.523-.624 1.776-1.408 3.737-2.383l.565-.368c.617-.462 1.037-1.005 1.215-1.667.238-.891.167-1.647-.183-2.287-.375-.646-1.049-1.1-1.97-1.347-1.152-.308-2.091-.178-2.801.424-.625.487-1.087 1.292-1.387 2.412l-2.687-.72c.498-1.859 1.425-3.167 2.786-3.948zm-.278 14.226a1.1 1.1 0 0 0-1.347.777l-.31 1.16a1.1 1.1 0 0 0 .777 1.347l1.16.31a1.1 1.1 0 0 0 1.347-.777l.31-1.16a1.1 1.1 0 0 0-.777-1.347l-1.16-.31z" fill="#D3D9E6"/><circle cx="166.756" cy="108.756" r="19.756" fill="url(#paint4_linear_726_1990)" fill-opacity=".8" stroke="#06F" stroke-width="7"/><path stroke="#06F" stroke-width="4.559" d="M182.045 123.101 184.624 125.68"/><path d="m188.634 125.403 8.419 7.033a4.103 4.103 0 1 1-5.779 5.78l-7.033-8.42a3.12 3.12 0 0 1 4.393-4.393z" fill="#06F" stroke="#06F" stroke-width="1.52"/><path fill-rule="evenodd" clip-rule="evenodd" d="m177.065 98.632-3.578 3.936-1.06-.994a8.681 8.681 0 0 0-9.218-1.685l-1.68.692-2.385-4.77 2.041-.84c4.983-2.052 10.834-1.07 14.88 2.723l1 .938z" fill="#06F"/><defs><linearGradient id="paint0_linear_726_1990" x1="37" y1="40" x2="183" y2="40" gradientUnits="userSpaceOnUse"><stop stop-color="#CFD4E6"/><stop offset="1" stop-color="#DBE0F0"/></linearGradient><linearGradient id="paint1_linear_726_1990" x1="37" y1="40" x2="183" y2="40" gradientUnits="userSpaceOnUse"><stop stop-color="#B2BCE1"/><stop offset="1" stop-color="#D5DAE9"/></linearGradient><linearGradient id="paint2_linear_726_1990" x1="110" y1="103.387" x2="171.8" y2="103.387" gradientUnits="userSpaceOnUse"><stop stop-color="#DFE3F0"/><stop offset="1" stop-color="#fff" stop-opacity=".5"/></linearGradient><linearGradient id="paint3_linear_726_1990" x1="147.808" y1="155.142" x2="195.467" y2="144.156" gradientUnits="userSpaceOnUse"><stop stop-color="#B6BDD2"/><stop offset="1" stop-color="#D7DDEC"/></linearGradient><linearGradient id="paint4_linear_726_1990" x1="177" y1="94" x2="166.756" y2="128.512" gradientUnits="userSpaceOnUse"><stop stop-color="#fff"/><stop offset="1" stop-color="#fff" stop-opacity=".22"/></linearGradient></defs></svg>