<svg width="220" height="160" viewBox="0 0 220 160" fill="none" xmlns="http://www.w3.org/2000/svg"><rect x="37" y="50" width="146" height="94" rx="12" fill="url(#paint0_linear_2539_132191)"/><mask id="mask0_2539_132191" style="mask-type:alpha" maskUnits="userSpaceOnUse" x="37" y="50" width="146" height="94"><rect x="37" y="50" width="146" height="94" rx="12" fill="url(#paint1_linear_2539_132191)"/></mask><g mask="url(#mask0_2539_132191)"><rect x="1" y="100" width="99" height="26" rx="6" fill="url(#paint2_linear_2539_132191)"/><path opacity=".8" d="M166.497 28.242c3.434-5.602 11.572-5.602 15.006 0l22.285 36.36c3.594 5.863-.626 13.398-7.503 13.398h-44.57c-6.877 0-11.097-7.535-7.503-13.398l22.285-36.36z" fill="url(#paint3_linear_2539_132191)"/><path opacity=".6" fill="url(#paint4_linear_2539_132191)" d="M50 82H101V116H50z"/><path opacity=".6" fill-rule="evenodd" clip-rule="evenodd" d="M170 82h-60v4h60v-4zm0 10h-60v4h60v-4zm-60 10h60v4h-60v-4zm37 10h-37v4h37v-4z" fill="url(#paint5_linear_2539_132191)"/></g><path stroke="#fff" d="M37 65.5 180 65.5"/><circle cx="47.7" cy="57.7" r="1.7" fill="#757B94"/><circle cx="54.501" cy="57.7" r="1.7" fill="#757B94"/><circle cx="61.3" cy="57.7" r="1.7" fill="#757B94"/><rect x="50" y="73" width="32" height="4" rx="2" fill="#06F"/><rect x="6.6" y="93.6" width="84.8" height="23.8" rx="5.4" fill="#EBEDF5" fill-opacity=".6" stroke="#282C33" stroke-width="1.2"/><rect x="31" y="102" width="48" height="7" rx="3.5" fill="#C4CADD"/><rect x="14" y="100" width="11" height="11" rx="3" fill="#06F"/><path fill-rule="evenodd" clip-rule="evenodd" d="M13.806 64.073c.782-1.383 2.123-2.316 4.016-2.823 1.638-.439 3.084-.362 4.353.28 1.263.617 2.102 1.703 2.511 3.23.335 1.248.282 2.382-.14 3.368-.155.342-.694 1.196-1.616 2.563a4.38 4.38 0 0 0-.72 1.612c-.145.585-.123 1.179.04 1.79l.117.433-2.738.734-.116-.433c-.253-.942-.318-1.799-.137-2.557.142-.802.834-2.106 2.046-3.932l.305-.6c.303-.71.396-1.39.218-2.052-.239-.891-.679-1.51-1.302-1.89-.648-.371-1.458-.427-2.38-.18-1.15.308-1.9.89-2.213 1.766-.297.735-.295 1.663.005 2.783l-2.687.72c-.498-1.859-.35-3.455.438-4.812zm6.873 12.459a1.1 1.1 0 0 0-.778 1.347l.31 1.159a1.1 1.1 0 0 0 1.348.778l1.16-.31a1.1 1.1 0 0 0 .777-1.348l-.31-1.16a1.1 1.1 0 0 0-1.348-.777l-1.159.31zM27.066 38.062c1.368-.807 2.995-.944 4.889-.437 1.637.439 2.852 1.228 3.63 2.42.785 1.165.969 2.524.56 4.052-.335 1.248-.948 2.203-1.806 2.847-.305.218-1.199.688-2.681 1.41a4.382 4.382 0 0 0-1.43 1.037c-.418.434-.696.96-.86 1.57l-.115.434-2.738-.734.116-.433c.252-.942.624-1.716 1.16-2.282.523-.624 1.776-1.408 3.737-2.383l.565-.368c.617-.462 1.037-1.005 1.214-1.667.24-.891.168-1.647-.182-2.287-.375-.646-1.05-1.1-1.97-1.347-1.152-.308-2.092-.178-2.801.424-.625.487-1.087 1.291-1.387 2.412l-2.687-.72c.498-1.859 1.425-3.167 2.786-3.948zm-.278 14.226a1.1 1.1 0 0 0-1.347.777l-.31 1.16a1.1 1.1 0 0 0 .777 1.347l1.16.31a1.1 1.1 0 0 0 1.347-.778l.31-1.159a1.1 1.1 0 0 0-.777-1.347l-1.16-.31z" fill="#D3D9E6"/><path d="M168.866 36.492c2.334-3.861 7.934-3.861 10.268 0l15.361 25.404c2.418 3.998-.462 9.104-5.134 9.104h-30.722c-4.672 0-7.552-5.106-5.134-9.105l15.361-25.404z" fill="#06F"/><path fill-rule="evenodd" clip-rule="evenodd" d="M172.401 43c-.631 0-1.133.53-1.099 1.16l.489 8.889.93 4.696a1.1 1.1 0 0 0 1.079.887h.402a1.1 1.1 0 0 0 1.079-.887l.93-4.696.488-8.889a1.1 1.1 0 0 0-1.098-1.16h-3.2zm.397 17.102a1.1 1.1 0 0 0-1.1 1.1V63.6a1.1 1.1 0 0 0 1.1 1.1h2.404a1.1 1.1 0 0 0 1.1-1.1v-2.398a1.1 1.1 0 0 0-1.1-1.1h-2.404z" fill="url(#paint6_linear_2539_132191)"/><defs><linearGradient id="paint0_linear_2539_132191" x1="37" y1="50" x2="183" y2="50" gradientUnits="userSpaceOnUse"><stop stop-color="#CFD4E6"/><stop offset="1" stop-color="#DBE0F0"/></linearGradient><linearGradient id="paint1_linear_2539_132191" x1="37" y1="50" x2="183" y2="50" gradientUnits="userSpaceOnUse"><stop stop-color="#B1B5C4"/><stop offset="1" stop-color="#E4E9F3"/></linearGradient><linearGradient id="paint2_linear_2539_132191" x1="24.816" y1="109.5" x2="99.373" y2="122.2" gradientUnits="userSpaceOnUse"><stop stop-color="#BDC3D7"/><stop offset="1" stop-color="#CFD4E6"/></linearGradient><linearGradient id="paint3_linear_2539_132191" x1="142.861" y1="69.593" x2="170.752" y2="64.237" gradientUnits="userSpaceOnUse"><stop stop-color="#B6BDD2"/><stop offset="1" stop-color="#D7DDEC"/></linearGradient><linearGradient id="paint4_linear_2539_132191" x1="50" y1="103.387" x2="102.53" y2="103.387" gradientUnits="userSpaceOnUse"><stop stop-color="#DFE3F0"/><stop offset="1" stop-color="#fff" stop-opacity=".5"/></linearGradient><linearGradient id="paint5_linear_2539_132191" x1="110" y1="103.387" x2="171.8" y2="103.387" gradientUnits="userSpaceOnUse"><stop stop-color="#DFE3F0"/><stop offset="1" stop-color="#fff" stop-opacity=".5"/></linearGradient><linearGradient id="paint6_linear_2539_132191" x1="172.946" y1="46.498" x2="182.038" y2="49.815" gradientUnits="userSpaceOnUse"><stop offset=".02" stop-color="#fff"/><stop offset="1" stop-color="#fff" stop-opacity=".55"/></linearGradient></defs></svg>