<svg width="220" height="160" viewBox="0 0 220 160" fill="none" xmlns="http://www.w3.org/2000/svg"><rect x="63" y="34" width="94" height="110" rx="12" fill="url(#paint0_linear_6126_222838)"/><mask id="mask0_6126_222838" style="mask-type:alpha" maskUnits="userSpaceOnUse" x="63" y="34" width="94" height="110"><rect x="63" y="34" width="94" height="110" rx="12" fill="url(#paint1_linear_6126_222838)"/></mask><g mask="url(#mask0_6126_222838)"><path fill="url(#paint2_linear_6126_222838)" stroke="#fff" stroke-width=".917" d="M72.458 41.458H147.541V135.541H72.458z"/><path opacity=".8" d="M154 156c-16.569 0-30-13.431-30-30 0-16.569 13.431-30 30-30 16.569 0 30 13.431 30 30 0 16.569-13.431 30-30 30z" fill="url(#paint3_linear_6126_222838)"/><path d="M156.667 110.525v12.521c0 .29.235.525.525.525h10.283c.29 0 .525.235.525.525v4.379c0 .29-.235.525-.525.525h-15.95a.525.525 0 0 1-.525-.525v-17.95c0-.29.235-.525.525-.525h4.617c.29 0 .525.235.525.525z" fill="url(#paint4_linear_6126_222838)"/></g><rect x="82" y="57" width="12" height="12" rx="3" stroke="#BBC1D5" stroke-width="3"/><rect opacity=".7" x="82" y="82" width="12" height="12" rx="3" stroke="#BBC1D5" stroke-width="3"/><rect opacity=".5" x="82" y="107" width="12" height="12" rx="3" stroke="#BBC1D5" stroke-width="3"/><rect x="100" y="57" width="36" height="4" rx=".5" fill="url(#paint5_linear_6126_222838)"/><rect opacity=".7" x="100" y="82" width="36" height="4" rx=".5" fill="url(#paint6_linear_6126_222838)"/><rect opacity=".5" x="100" y="107" width="36" height="4" rx=".5" fill="url(#paint7_linear_6126_222838)"/><rect x="100" y="65" width="21" height="4" rx=".5" fill="url(#paint8_linear_6126_222838)"/><rect opacity=".7" x="100" y="90" width="21" height="4" rx=".5" fill="url(#paint9_linear_6126_222838)"/><rect opacity=".5" x="100" y="115" width="21" height="4" rx=".5" fill="url(#paint10_linear_6126_222838)"/><path d="M154 149c-12.703 0-23-10.297-23-23s10.297-23 23-23 23 10.297 23 23-10.297 23-23 23z" fill="#FF9100"/><path d="M155.1 116.025v9.45c0 .29.235.525.525.525h7.35c.29 0 .525.235.525.525v3.15c0 .29-.235.525-.525.525h-11.55a.525.525 0 0 1-.525-.525v-13.65c0-.29.235-.525.525-.525h3.15c.29 0 .525.235.525.525z" fill="url(#paint11_linear_6126_222838)"/><path d="M115.724 34.95h-11.448a8.486 8.486 0 0 0 3.824-4.154c.716-1.671 3.084-1.671 3.8 0a8.486 8.486 0 0 0 3.824 4.154z" stroke="url(#paint12_linear_6126_222838)" stroke-width="12.1"/><mask id="mask1_6126_222838" style="mask-type:alpha" maskUnits="userSpaceOnUse" x="91" y="23" width="38" height="18"><path d="M115.724 34.95h-11.448a8.486 8.486 0 0 0 3.824-4.154c.716-1.671 3.084-1.671 3.8 0a8.486 8.486 0 0 0 3.824 4.154z" stroke="url(#paint13_linear_6126_222838)" stroke-width="12.1"/></mask><g mask="url(#mask1_6126_222838)"><path opacity=".4" fill="url(#paint14_linear_6126_222838)" d="M75.563 32.481H138.251V45.370000000000005H75.563z"/></g><circle cx="110.001" cy="28.2" r="2.2" fill="#757B94"/><path d="M170.852 41.584c1.012-.745 3.458-2.168 5.144-1.911M170.6 46.074c1.905.47 6.093 1.62 7.604 2.454 1.512.835 2.409 1.41 2.669 1.593M148.011 18.15c1.402-.47 4.585-.789 6.105 1.686 1.9 3.094 1.692 5.866-.026 5.819-1.718-.047-.021-4.1 4.801-3.904 4.823.197 7.887 4.095 8.348 6.773.685 3.986-1.665 10.205-2.755 13.813 2.663-3.08 8.517-9.742 10.635-11.748 2.117-2.006 4.159-2.995 4.915-3.24" stroke="#D3D9E6" stroke-width="1.888"/><path d="M170.514 29.67c.696-1.259 2.563-3.792 4.469-3.846" stroke="#D3D9E6" stroke-width="1.888"/><defs><linearGradient id="paint0_linear_6126_222838" x1="63" y1="34" x2="157" y2="34" gradientUnits="userSpaceOnUse"><stop stop-color="#CFD4E6"/><stop offset="1" stop-color="#DBE0F0"/></linearGradient><linearGradient id="paint1_linear_6126_222838" x1="63" y1="34" x2="157" y2="34" gradientUnits="userSpaceOnUse"><stop stop-color="#C0C5D8"/><stop offset="1" stop-color="#EBF0FB"/></linearGradient><linearGradient id="paint2_linear_6126_222838" x1="72" y1="41" x2="148" y2="41" gradientUnits="userSpaceOnUse"><stop stop-color="#CFD4E4"/><stop offset="1" stop-color="#DBE1F2"/></linearGradient><linearGradient id="paint3_linear_6126_222838" x1="129.417" y1="147.864" x2="151.701" y2="144.374" gradientUnits="userSpaceOnUse"><stop stop-color="#B6BDD2"/><stop offset="1" stop-color="#D7DDEC"/></linearGradient><linearGradient id="paint4_linear_6126_222838" x1="156.179" y1="113.063" x2="168.102" y2="128.7" gradientUnits="userSpaceOnUse"><stop offset=".02" stop-color="#fff"/><stop offset="1" stop-color="#fff" stop-opacity=".55"/></linearGradient><linearGradient id="paint5_linear_6126_222838" x1="114.914" y1="58.412" x2="132.114" y2="67.445" gradientUnits="userSpaceOnUse"><stop stop-color="#BBC0D5"/><stop offset="1" stop-color="#CDD3E4"/></linearGradient><linearGradient id="paint6_linear_6126_222838" x1="114.914" y1="83.412" x2="132.114" y2="92.445" gradientUnits="userSpaceOnUse"><stop stop-color="#BBC0D5"/><stop offset="1" stop-color="#CDD3E4"/></linearGradient><linearGradient id="paint7_linear_6126_222838" x1="114.914" y1="108.412" x2="132.114" y2="117.445" gradientUnits="userSpaceOnUse"><stop stop-color="#BBC0D5"/><stop offset="1" stop-color="#CDD3E4"/></linearGradient><linearGradient id="paint8_linear_6126_222838" x1="108.7" y1="66.412" x2="120.402" y2="69.997" gradientUnits="userSpaceOnUse"><stop stop-color="#BBC0D5"/><stop offset="1" stop-color="#CDD3E4"/></linearGradient><linearGradient id="paint9_linear_6126_222838" x1="108.7" y1="91.412" x2="120.402" y2="94.997" gradientUnits="userSpaceOnUse"><stop stop-color="#BBC0D5"/><stop offset="1" stop-color="#CDD3E4"/></linearGradient><linearGradient id="paint10_linear_6126_222838" x1="108.7" y1="116.412" x2="120.402" y2="119.997" gradientUnits="userSpaceOnUse"><stop stop-color="#BBC0D5"/><stop offset="1" stop-color="#CDD3E4"/></linearGradient><linearGradient id="paint11_linear_6126_222838" x1="154.739" y1="117.87" x2="164.061" y2="129.582" gradientUnits="userSpaceOnUse"><stop offset=".02" stop-color="#fff"/><stop offset="1" stop-color="#fff" stop-opacity=".55"/></linearGradient><linearGradient id="paint12_linear_6126_222838" x1="91.5" y1="30.25" x2="128.5" y2="30.25" gradientUnits="userSpaceOnUse"><stop stop-color="#CBD1E7"/><stop offset="1" stop-color="#DDE3F1"/></linearGradient><linearGradient id="paint13_linear_6126_222838" x1="91.5" y1="30.25" x2="128.5" y2="30.25" gradientUnits="userSpaceOnUse"><stop stop-color="#BEC2D0"/><stop offset="1" stop-color="#DBE0F1"/></linearGradient><linearGradient id="paint14_linear_6126_222838" x1="106.906" y1="32.481" x2="106.906" y2="45.37" gradientUnits="userSpaceOnUse"><stop stop-color="#868FAE" stop-opacity="0"/><stop offset="1" stop-color="#61677C"/></linearGradient></defs></svg>