<svg width="220" height="160" viewBox="0 0 220 160" fill="none" xmlns="http://www.w3.org/2000/svg"><rect x="63" y="34" width="94" height="110" rx="12" fill="url(#paint0_linear_6126_222839)"/><mask id="mask0_6126_222839" style="mask-type:alpha" maskUnits="userSpaceOnUse" x="63" y="34" width="94" height="110"><rect x="63" y="34" width="94" height="110" rx="12" fill="url(#paint1_linear_6126_222839)"/></mask><g mask="url(#mask0_6126_222839)"><path fill="url(#paint2_linear_6126_222839)" stroke="#fff" stroke-width=".917" d="M72.458 41.458H147.541V135.541H72.458z"/><path opacity=".8" d="M154 156c-16.569 0-30-13.431-30-30 0-16.569 13.431-30 30-30 16.569 0 30 13.431 30 30 0 16.569-13.431 30-30 30z" fill="url(#paint3_linear_6126_222839)"/><path d="M156.667 110.525v12.521c0 .29.235.525.525.525h10.283c.29 0 .525.235.525.525v4.379c0 .29-.235.525-.525.525h-15.95a.525.525 0 0 1-.525-.525v-17.95c0-.29.235-.525.525-.525h4.617c.29 0 .525.235.525.525z" fill="url(#paint4_linear_6126_222839)"/></g><rect x="100" y="57" width="36" height="4" rx=".5" fill="url(#paint5_linear_6126_222839)"/><rect opacity=".7" x="100" y="82" width="36" height="4" rx=".5" fill="url(#paint6_linear_6126_222839)"/><rect opacity=".5" x="100" y="107" width="36" height="4" rx=".5" fill="url(#paint7_linear_6126_222839)"/><rect x="100" y="65" width="21" height="4" rx=".5" fill="url(#paint8_linear_6126_222839)"/><path fill-rule="evenodd" clip-rule="evenodd" d="M92.923 54.368a.525.525 0 0 1 .743.006l1.966 1.996c.203.206.2.539-.006.742L85.189 67.393c-.214.21-.56.2-.76-.025l-6.08-6.818a.525.525 0 0 1 .043-.741l2.09-1.864a.525.525 0 0 1 .742.042l3.385 3.797c.2.224.547.235.76.025l7.554-7.44z" fill="#BBC1D5"/><path opacity=".7" fill-rule="evenodd" clip-rule="evenodd" d="M92.923 81.368a.525.525 0 0 1 .743.006l1.966 1.996c.203.206.2.539-.006.742L85.189 94.393c-.214.21-.56.2-.76-.025l-6.08-6.818a.525.525 0 0 1 .043-.741l2.09-1.864a.525.525 0 0 1 .742.042l3.385 3.797c.2.224.547.235.76.025l7.554-7.44z" fill="#BBC1D5"/><path opacity=".5" fill-rule="evenodd" clip-rule="evenodd" d="M92.923 106.368a.525.525 0 0 1 .743.006l1.966 1.996c.203.206.2.539-.006.742l-10.437 10.281a.525.525 0 0 1-.76-.024l-6.08-6.819a.525.525 0 0 1 .043-.741l2.09-1.864a.525.525 0 0 1 .742.042l3.385 3.797c.2.224.547.235.76.025l7.554-7.441z" fill="#BBC1D5"/><rect opacity=".7" x="100" y="90" width="21" height="4" rx=".5" fill="url(#paint9_linear_6126_222839)"/><rect opacity=".5" x="100" y="115" width="21" height="4" rx=".5" fill="url(#paint10_linear_6126_222839)"/><path d="M154 149c-12.703 0-23-10.297-23-23s10.297-23 23-23 23 10.297 23 23-10.297 23-23 23z" fill="#00BF5C"/><path fill-rule="evenodd" clip-rule="evenodd" d="M161.911 119.168a.525.525 0 0 1 .742.006l2.566 2.605a.526.526 0 0 1-.005.743l-12.927 12.733a.526.526 0 0 1-.761-.024l-7.589-8.512a.525.525 0 0 1 .043-.742l2.73-2.434a.525.525 0 0 1 .741.043l4.297 4.819a.524.524 0 0 0 .76.025l9.403-9.262z" fill="url(#paint11_linear_6126_222839)"/><path d="M115.724 34.95h-11.448a8.486 8.486 0 0 0 3.824-4.154c.716-1.671 3.084-1.671 3.8 0a8.486 8.486 0 0 0 3.824 4.154z" stroke="url(#paint12_linear_6126_222839)" stroke-width="12.1"/><mask id="mask1_6126_222839" style="mask-type:alpha" maskUnits="userSpaceOnUse" x="91" y="23" width="38" height="18"><path d="M115.724 34.95h-11.448a8.486 8.486 0 0 0 3.824-4.154c.716-1.671 3.084-1.671 3.8 0a8.486 8.486 0 0 0 3.824 4.154z" stroke="url(#paint13_linear_6126_222839)" stroke-width="12.1"/></mask><g mask="url(#mask1_6126_222839)"><path opacity=".4" fill="url(#paint14_linear_6126_222839)" d="M75.563 32.481H138.251V45.370000000000005H75.563z"/></g><circle cx="110.001" cy="28.2" r="2.2" fill="#757B94"/><path d="M47.8 76.04c.653.914 1.669 1.47 2.538 1.799.222.084.205.724-.023.791-.854.25-1.849.664-2.515 1.33-.768.768-1.2 2.23-1.434 3.382-.047.232-.545.25-.606.02-.304-1.141-.813-2.599-1.56-3.402-.62-.667-1.559-1.076-2.39-1.323-.23-.068-.26-.776-.04-.868.813-.336 1.745-.876 2.43-1.729.797-.992 1.289-2.349 1.575-3.404.062-.229.588-.221.642.01.247 1.053.676 2.404 1.383 3.394zM170.4 31.747c1.013 1.424 2.68 2.198 3.933 2.6.226.073.211.658-.019.716-1.237.308-2.875.89-3.914 1.932-1.151 1.156-1.737 3.484-2.015 5.08-.041.233-.511.25-.567.02-.382-1.578-1.099-3.892-2.218-5.1-.982-1.06-2.559-1.632-3.79-1.934-.232-.057-.258-.697-.032-.776 1.193-.418 2.739-1.184 3.822-2.538 1.205-1.506 1.886-3.638 2.238-5.1.055-.23.549-.223.597.009.303 1.461.895 3.588 1.965 5.091z" fill="#D3D9E6"/><circle cx="159" cy="18" r="1" fill="#D3D9E6"/><circle cx="146.5" cy="27.5" r="1.5" fill="#D3D9E6"/><defs><linearGradient id="paint0_linear_6126_222839" x1="63" y1="34" x2="157" y2="34" gradientUnits="userSpaceOnUse"><stop stop-color="#CFD4E6"/><stop offset="1" stop-color="#DBE0F0"/></linearGradient><linearGradient id="paint1_linear_6126_222839" x1="63" y1="34" x2="157" y2="34" gradientUnits="userSpaceOnUse"><stop stop-color="#C0C5D8"/><stop offset="1" stop-color="#EBF0FB"/></linearGradient><linearGradient id="paint2_linear_6126_222839" x1="72" y1="41" x2="148" y2="41" gradientUnits="userSpaceOnUse"><stop stop-color="#CFD4E4"/><stop offset="1" stop-color="#DBE1F2"/></linearGradient><linearGradient id="paint3_linear_6126_222839" x1="129.417" y1="147.864" x2="151.701" y2="144.374" gradientUnits="userSpaceOnUse"><stop stop-color="#B6BDD2"/><stop offset="1" stop-color="#D7DDEC"/></linearGradient><linearGradient id="paint4_linear_6126_222839" x1="156.179" y1="113.063" x2="168.102" y2="128.7" gradientUnits="userSpaceOnUse"><stop offset=".02" stop-color="#fff"/><stop offset="1" stop-color="#fff" stop-opacity=".55"/></linearGradient><linearGradient id="paint5_linear_6126_222839" x1="114.914" y1="58.412" x2="132.114" y2="67.445" gradientUnits="userSpaceOnUse"><stop stop-color="#BBC0D5"/><stop offset="1" stop-color="#CDD3E4"/></linearGradient><linearGradient id="paint6_linear_6126_222839" x1="114.914" y1="83.412" x2="132.114" y2="92.445" gradientUnits="userSpaceOnUse"><stop stop-color="#BBC0D5"/><stop offset="1" stop-color="#CDD3E4"/></linearGradient><linearGradient id="paint7_linear_6126_222839" x1="114.914" y1="108.412" x2="132.114" y2="117.445" gradientUnits="userSpaceOnUse"><stop stop-color="#BBC0D5"/><stop offset="1" stop-color="#CDD3E4"/></linearGradient><linearGradient id="paint8_linear_6126_222839" x1="108.7" y1="66.412" x2="120.402" y2="69.997" gradientUnits="userSpaceOnUse"><stop stop-color="#BBC0D5"/><stop offset="1" stop-color="#CDD3E4"/></linearGradient><linearGradient id="paint9_linear_6126_222839" x1="108.7" y1="91.412" x2="120.402" y2="94.997" gradientUnits="userSpaceOnUse"><stop stop-color="#BBC0D5"/><stop offset="1" stop-color="#CDD3E4"/></linearGradient><linearGradient id="paint10_linear_6126_222839" x1="108.7" y1="116.412" x2="120.402" y2="119.997" gradientUnits="userSpaceOnUse"><stop stop-color="#BBC0D5"/><stop offset="1" stop-color="#CDD3E4"/></linearGradient><linearGradient id="paint11_linear_6126_222839" x1="150.29" y1="121.515" x2="159.285" y2="138.737" gradientUnits="userSpaceOnUse"><stop offset=".02" stop-color="#fff"/><stop offset="1" stop-color="#fff" stop-opacity=".55"/></linearGradient><linearGradient id="paint12_linear_6126_222839" x1="91.5" y1="30.25" x2="128.5" y2="30.25" gradientUnits="userSpaceOnUse"><stop stop-color="#CBD1E7"/><stop offset="1" stop-color="#DDE3F1"/></linearGradient><linearGradient id="paint13_linear_6126_222839" x1="91.5" y1="30.25" x2="128.5" y2="30.25" gradientUnits="userSpaceOnUse"><stop stop-color="#BEC2D0"/><stop offset="1" stop-color="#DBE0F1"/></linearGradient><linearGradient id="paint14_linear_6126_222839" x1="106.906" y1="32.481" x2="106.906" y2="45.37" gradientUnits="userSpaceOnUse"><stop stop-color="#868FAE" stop-opacity="0"/><stop offset="1" stop-color="#61677C"/></linearGradient></defs></svg>