<svg width="220" height="160" viewBox="0 0 220 160" fill="none" xmlns="http://www.w3.org/2000/svg"><path fill="#757B94" d="M66.834 68.917H151.167V74.417H66.834z"/><rect x="55" y="38" width="108" height="31" rx="12" fill="url(#paint0_linear_2539_132194)"/><mask id="mask0_2539_132194" style="mask-type:alpha" maskUnits="userSpaceOnUse" x="55" y="38" width="108" height="31"><rect x="55" y="38" width="108" height="31" rx="12" fill="url(#paint1_linear_2539_132194)"/></mask><g mask="url(#mask0_2539_132194)"><path d="M69.252 65.05H32.445c-8.944.392-16.525-6.31-16.928-14.975-.317-6.742 3.805-12.684 9.864-15.173 2.975-1.222 5.493-3.821 6.426-6.9 2.376-7.838 9.59-13.722 18.408-14.293 9.268-.598 17.586 4.849 20.695 12.961.954 2.491 2.979 4.528 5.44 5.558 6.78 2.839 11.2 9.61 10.595 17.052-.727 8.932-8.441 15.81-17.69 15.77h-.003z" fill="url(#paint2_linear_2539_132194)"/></g><path fill-rule="evenodd" clip-rule="evenodd" d="M62.2 46.1a1.1 1.1 0 1 1-2.2 0 1.1 1.1 0 0 1 2.2 0zm4.4 0a1.1 1.1 0 1 1-2.2 0 1.1 1.1 0 0 1 2.2 0zm3.3 1.1a1.1 1.1 0 1 0 0-2.2 1.1 1.1 0 0 0 0 2.2z" fill="#757B94"/><circle cx="146.5" cy="53.5" r="4.5" fill="#06F"/><path opacity=".6" fill="#AFB4C8" d="M114.5 52.5H136.5V54.5H114.5z"/><path d="M117 69a6 6 0 0 0-6-6H71a6 6 0 0 0-6 6" stroke="#fff"/><path fill="#757B94" d="M67 103H151V109H67z"/><rect x="55" y="74" width="108" height="31" rx="12" fill="url(#paint3_linear_2539_132194)"/><path fill-rule="evenodd" clip-rule="evenodd" d="M63.2 81.1a1.1 1.1 0 1 1-2.2 0 1.1 1.1 0 0 1 2.2 0zm4.4 0a1.1 1.1 0 1 1-2.2 0 1.1 1.1 0 0 1 2.2 0zm3.3 1.1a1.1 1.1 0 1 0 0-2.2 1.1 1.1 0 0 0 0 2.2z" fill="#757B94"/><circle cx="146.5" cy="89.5" r="4.5" fill="#06F"/><path opacity=".6" fill="#AFB4C8" d="M114 88.5H136V90.5H114z"/><path d="M117 105a6 6 0 0 0-6-6H71a6 6 0 0 0-6 6" stroke="#fff"/><path fill="#757B94" d="M67 138H151V144H67z"/><rect x="55" y="109" width="108" height="31" rx="12" fill="url(#paint4_linear_2539_132194)"/><path fill-rule="evenodd" clip-rule="evenodd" d="M63.2 116.1a1.1 1.1 0 1 1-2.2 0 1.1 1.1 0 0 1 2.2 0zm4.4 0a1.1 1.1 0 1 1-2.2 0 1.1 1.1 0 0 1 2.2 0zm3.3 1.1a1.1 1.1 0 1 0 0-2.2 1.1 1.1 0 0 0 0 2.2z" fill="#757B94"/><circle cx="146.5" cy="124.5" r="4.5" fill="#06F"/><path opacity=".6" fill="#AFB4C8" d="M114 123.5H136V125.5H114z"/><path d="M117 140a6 6 0 0 0-6-6H71a6 6 0 0 0-6 6" stroke="#fff"/><path d="M68.639 59.64H43.55c-6.096.266-11.264-4.302-11.538-10.208-.278-5.905 4.44-10.91 10.536-11.178-.016-7.175 5.723-13.132 13.114-13.61 7.392-.477 13.897 4.687 14.865 11.802 6.23.93 10.667 6.357 10.171 12.444-.495 6.088-5.753 10.776-12.058 10.75h-.001z" fill="#06F"/><path fill-rule="evenodd" clip-rule="evenodd" d="M55.1 33.5a1.1 1.1 0 0 0-1.098 1.161l.48 8.66c.004.053.01.105.02.156l.908 4.539a1.1 1.1 0 0 0 1.079.884h.396a1.1 1.1 0 0 0 1.08-.884l.907-4.54c.01-.05.017-.102.02-.154l.48-8.661a1.1 1.1 0 0 0-1.098-1.161H55.1zm.487 16.5a1.1 1.1 0 0 0-1.1 1.1v2.2a1.1 1.1 0 0 0 1.1 1.1h2.2a1.1 1.1 0 0 0 1.1-1.1v-2.2a1.1 1.1 0 0 0-1.1-1.1h-2.2z" fill="url(#paint5_linear_2539_132194)"/><path fill-rule="evenodd" clip-rule="evenodd" d="M178.373 115.793c1.53-.426 3.138-.137 4.836.843 1.468.848 2.437 1.925 2.88 3.277.456 1.328.282 2.689-.509 4.059-.646 1.119-1.485 1.883-2.48 2.283-.352.132-1.337.354-2.955.668a4.378 4.378 0 0 0-1.649.631c-.516.311-.921.747-1.237 1.295l-.225.388-2.454-1.417.224-.388c.488-.845 1.047-1.496 1.711-1.904.667-.467 2.08-.9 4.227-1.335l.64-.209c.717-.286 1.262-.702 1.605-1.296.462-.799.588-1.548.416-2.256-.195-.722-.729-1.334-1.555-1.811-1.032-.596-1.974-.713-2.815-.316-.729.31-1.384.967-1.964 1.971l-2.409-1.39c.963-1.667 2.196-2.69 3.713-3.093zm-3.95 13.669a1.1 1.1 0 0 0-1.503.403l-.6 1.039a1.1 1.1 0 0 0 .403 1.502l1.039.6a1.1 1.1 0 0 0 1.503-.402l.6-1.039a1.1 1.1 0 0 0-.403-1.503l-1.039-.6zM172.31 89.062c1.368-.807 2.996-.944 4.889-.437 1.638.439 2.852 1.228 3.63 2.42.785 1.165.969 2.524.559 4.052-.334 1.248-.946 2.203-1.804 2.847-.306.218-1.2.688-2.682 1.41a4.392 4.392 0 0 0-1.43 1.037c-.417.434-.696.96-.859 1.571l-.116.433-2.738-.734.116-.433c.252-.942.624-1.716 1.16-2.282.524-.624 1.776-1.408 3.737-2.383l.565-.368c.618-.462 1.037-1.005 1.215-1.667.238-.891.167-1.647-.183-2.287-.375-.646-1.049-1.1-1.97-1.347-1.152-.308-2.091-.178-2.801.424-.624.487-1.087 1.292-1.387 2.412l-2.687-.72c.498-1.859 1.425-3.166 2.786-3.948zm-.278 14.226a1.1 1.1 0 0 0-1.347.777l-.31 1.16a1.1 1.1 0 0 0 .778 1.347l1.159.31a1.1 1.1 0 0 0 1.347-.778l.31-1.159a1.1 1.1 0 0 0-.777-1.347l-1.16-.31z" fill="#D3D9E6"/><defs><linearGradient id="paint0_linear_2539_132194" x1="55" y1="38" x2="163" y2="38" gradientUnits="userSpaceOnUse"><stop stop-color="#CFD4E6"/><stop offset="1" stop-color="#DBE0F0"/></linearGradient><linearGradient id="paint1_linear_2539_132194" x1="55" y1="38" x2="163" y2="38" gradientUnits="userSpaceOnUse"><stop stop-color="#B1B5C4"/><stop offset="1" stop-color="#E4E9F3"/></linearGradient><linearGradient id="paint2_linear_2539_132194" x1="55" y1="63.5" x2="87" y2="47.5" gradientUnits="userSpaceOnUse"><stop stop-color="#BCC2D6"/><stop offset="1" stop-color="#CCD2E4"/></linearGradient><linearGradient id="paint3_linear_2539_132194" x1="55" y1="74" x2="163" y2="74" gradientUnits="userSpaceOnUse"><stop stop-color="#CFD4E6"/><stop offset="1" stop-color="#DBE0F0"/></linearGradient><linearGradient id="paint4_linear_2539_132194" x1="55" y1="109" x2="163" y2="109" gradientUnits="userSpaceOnUse"><stop stop-color="#CFD4E6"/><stop offset="1" stop-color="#DBE0F0"/></linearGradient><linearGradient id="paint5_linear_2539_132194" x1="55.637" y1="36.869" x2="64.614" y2="40.253" gradientUnits="userSpaceOnUse"><stop offset=".02" stop-color="#fff"/><stop offset="1" stop-color="#fff" stop-opacity=".55"/></linearGradient></defs></svg>